<?xml version="1.0" standalone="no"?>
<!DOCTYPE svg PUBLIC "-//W3C//DTD SVG 20010904//EN"
 "http://www.w3.org/TR/2001/REC-SVG-20010904/DTD/svg10.dtd">
<svg version="1.0" xmlns="http://www.w3.org/2000/svg"
 width="16.000000pt" height="16.000000pt" viewBox="0 0 16.000000 16.000000"
 preserveAspectRatio="xMidYMid meet">
<metadata>
Created by potrace 1.11, written by Peter Selinger 2001-2013
</metadata>
<g transform="translate(0.000000,16.000000) scale(0.001000,-0.001000)"
fill="#000000" stroke="none">
<path d="M4883 13625 c-51 -26 -51 -26 -42 -60 5 -18 22 -55 36 -82 35 -62
214 -327 225 -331 4 -2 8 -10 8 -17 0 -7 4 -15 8 -17 4 -1 64 -77 132 -168 68
-90 131 -173 139 -184 9 -10 29 -35 45 -55 58 -70 63 -77 46 -64 -20 15 -391
243 -395 243 -2 0 -39 22 -82 48 -43 26 -130 76 -193 112 -63 35 -131 72 -150
83 -78 45 -372 188 -470 229 -190 81 -328 118 -417 113 -98 -6 -129 -54 -109
-163 30 -159 291 -431 700 -731 76 -55 151 -109 167 -118 16 -10 29 -21 29
-25 0 -4 6 -8 13 -8 6 0 36 -18 65 -40 29 -22 54 -40 57 -40 2 0 39 -23 82
-51 43 -28 69 -48 58 -44 -11 4 -81 30 -155 57 -269 100 -690 236 -860 278
-106 26 -217 52 -240 56 -14 3 -50 9 -80 15 -30 6 -107 12 -170 14 -126 5
-173 -6 -217 -47 -22 -20 -24 -29 -20 -75 20 -193 333 -446 917 -739 181 -91
452 -214 470 -214 5 0 11 -4 14 -8 3 -5 -23 -5 -57 0 -34 5 -78 11 -97 13 -57
6 -133 15 -165 20 -16 2 -61 7 -100 10 -38 4 -81 8 -95 10 -23 4 -109 11 -225
20 -338 26 -693 25 -830 -1 -95 -18 -129 -29 -168 -54 -25 -15 -48 -38 -52
-50 -24 -75 63 -181 220 -270 158 -90 376 -180 656 -274 201 -67 252 -83 454
-141 66 -19 118 -35 115 -36 -6 -1 -28 -4 -134 -13 -43 -4 -87 -9 -97 -11 -9
-2 -46 -6 -81 -9 -34 -3 -74 -8 -87 -11 -12 -2 -43 -7 -67 -9 -24 -3 -74 -11
-111 -17 -37 -6 -81 -13 -98 -16 -91 -14 -292 -59 -375 -83 -183 -53 -273 -95
-332 -154 -113 -114 72 -297 377 -372 118 -29 150 -35 279 -49 63 -7 123 -11
201 -15 29 -1 29 -1 -15 -24 -225 -114 -353 -235 -352 -334 1 -60 17 -88 95
-166 56 -56 94 -83 166 -120 52 -25 114 -51 137 -57 24 -6 44 -14 44 -18 0 -4
-16 -13 -35 -19 -18 -7 -46 -27 -61 -45 -24 -28 -26 -37 -21 -93 4 -51 12 -72
50 -130 43 -65 129 -159 227 -248 68 -62 313 -243 473 -350 140 -93 158 -108
138 -120 -4 -3 -18 -38 -31 -77 -48 -154 -1 -242 158 -289 23 -7 42 -14 42
-15 0 -1 -9 -23 -20 -47 -66 -149 19 -263 238 -318 47 -12 48 -15 27 -84 -34
-113 -10 -217 65 -276 42 -33 144 -75 204 -83 21 -3 41 -9 45 -14 4 -4 13 -42
20 -83 22 -135 78 -223 172 -268 75 -36 119 -41 288 -29 22 2 26 -5 41 -65 55
-214 180 -311 359 -278 39 7 42 6 47 -19 33 -148 110 -223 246 -239 72 -9 177
3 252 28 34 11 36 10 73 -31 60 -66 74 -78 133 -107 65 -32 173 -41 259 -22
59 13 185 69 261 116 l44 28 -19 -26 c-455 -601 -632 -842 -884 -1198 -336
-476 -718 -1066 -869 -1340 -13 -25 -32 -58 -42 -75 -52 -90 -230 -437 -230
-450 0 -2 -11 -28 -24 -57 -52 -113 -108 -274 -122 -348 -2 -14 -7 -38 -11
-55 -20 -98 -7 -227 28 -267 19 -22 20 -22 32 -4 48 75 263 369 292 400 6 6
33 38 60 71 28 33 55 65 60 71 6 6 39 44 74 85 80 92 407 418 521 521 71 64
137 119 305 256 11 10 38 30 60 46 22 17 42 33 45 36 15 18 464 330 475 330 3
0 35 19 72 43 220 140 585 328 868 447 11 5 40 18 65 28 53 23 375 143 393
146 6 2 77 23 157 49 80 25 208 62 285 82 256 66 340 96 509 181 499 252 959
718 1399 1421 173 275 308 522 525 961 81 163 174 347 206 407 32 61 77 144
99 185 129 244 250 334 478 355 l66 7 404 -147 c222 -81 450 -164 508 -186 57
-22 105 -38 107 -36 5 5 -77 159 -132 248 -110 178 -234 321 -334 386 -76 49
-76 49 -95 218 -42 378 -143 590 -360 759 -87 68 -92 71 -205 126 -167 83
-405 149 -625 174 -11 2 -45 6 -75 9 -320 39 -875 44 -1143 12 -89 -11 -104
-13 -142 -20 -267 -45 -470 -112 -612 -202 l-52 -33 -48 63 c-122 160 -391
489 -497 607 -23 25 -70 79 -106 120 -36 41 -74 84 -85 95 -11 12 -38 41 -59
66 -126 142 -320 343 -621 644 -358 358 -432 430 -635 615 -69 63 -127 117
-130 120 -5 5 -130 115 -189 166 -19 16 -39 34 -45 39 -37 34 -238 205 -331
281 -936 771 -1622 1138 -1882 1009z"/>
</g>
</svg>
